HIERARCHY
ROOT Hips
{
	OFFSET 0.000000 93.594000 0.000000
	CHANNELS 6 Xposition Yposition Zposition Yrotation Xrotation Zrotation
	JOINT RightUpLeg
	{
		OFFSET -9.500000 -1.594000 0.000000
		CHANNELS 3 Yrotation Xrotation Zrotation
		JOINT RightLeg
		{
			OFFSET 0.000000 -42.000000 0.000000
			CHANNELS 3 Yrotation Xrotation Zrotation
			JOINT RightFoot
			{
				OFFSET 0.000000 -42.000000 0.000000
				CHANNELS 3 Yrotation Xrotation Zrotation
				End Site
				{
					OFFSET 0.000000 -8.000000 17.500000
				}
			}
		}
	}
	JOINT LeftUpLeg
	{
		OFFSET 9.500000 -1.594000 0.000000
		CHANNELS 3 Yrotation Xrotation Zrotation
		JOINT LeftLeg
		{
			OFFSET 0.000000 -42.000000 0.000000
			CHANNELS 3 Yrotation Xrotation Zrotation
			JOINT LeftFoot
			{
				OFFSET 0.000000 -42.000000 0.000000
				CHANNELS 3 Yrotation Xrotation Zrotation
				End Site
				{
					OFFSET 0.000000 -8.000000 17.500000
				}
			}
		}
	}
	JOINT Spine
	{
		OFFSET 0.000000 14.348000 0.000000
		CHANNELS 3 Yrotation Xrotation Zrotation
		JOINT Spine1
		{
			OFFSET 0.000000 9.746000 0.000000
			CHANNELS 3 Yrotation Xrotation Zrotation
			JOINT Spine2
			{
				OFFSET 0.000000 10.149000 0.000000
				CHANNELS 3 Yrotation Xrotation Zrotation
				JOINT Spine3
				{
					OFFSET 0.000000 9.746000 0.000000
					CHANNELS 3 Yrotation Xrotation Zrotation
					JOINT Neck
					{
						OFFSET 0.000000 10.417000 0.000000
						CHANNELS 3 Yrotation Xrotation Zrotation
						JOINT Head
						{
							OFFSET 0.000000 9.000000 0.000000
							CHANNELS 3 Yrotation Xrotation Zrotation
							End Site
							{
								OFFSET 0.000000 16.000000 0.000000
							}
						}
					}
					JOINT RightShoulder
					{
						OFFSET -3.200000 6.945000 0.000000
						CHANNELS 3 Yrotation Xrotation Zrotation
						JOINT RightArm
						{
							OFFSET -12.800000 0.000000 0.000000
							CHANNELS 3 Yrotation Xrotation Zrotation
							JOINT RightForeArm
							{
								OFFSET -27.000000 0.000000 0.000000
								CHANNELS 3 Yrotation Xrotation Zrotation
								JOINT RightHand
								{
									OFFSET -26.000000 0.000000 0.000000
									CHANNELS 3 Yrotation Xrotation Zrotation
									End Site
									{
										OFFSET -3.479000 0.532000 0.778000
									}
								}
							}
						}
					}
					JOINT LeftShoulder
					{
						OFFSET 3.200000 6.945000 0.000000
						CHANNELS 3 Yrotation Xrotation Zrotation
						JOINT LeftArm
						{
							OFFSET 12.800000 0.000000 0.000000
							CHANNELS 3 Yrotation Xrotation Zrotation
							JOINT LeftForeArm
							{
								OFFSET 27.000000 0.000000 0.000000
								CHANNELS 3 Yrotation Xrotation Zrotation
								JOINT LeftHand
								{
									OFFSET 26.000000 0.000000 0.000000
									CHANNELS 3 Yrotation Xrotation Zrotation
									End Site
									{
										OFFSET 3.479000 0.532000 0.778000
									}
								}
							}
						}
					}
				}
			}
		}
	}
}
MOTION
Frames: 10
Frame Time: 0.010000
18.58 89.5 29.34 -146.7 3.91 0.75 5.42 -31.57 -7.16 0.0 15.53 0.0 22.19 9.78 15.75 -0.17 -2.97 -3.54 -0.0 40.89 0.0 -0.69 -12.81 2.79 -11.31 6.34 0.01 -2.84 1.56 0.12 -4.68 2.57 0.16 1.21 0.05 -0.09 1.22 0.06 -0.09 22.51 1.69 -1.29 -6.15 -6.84 -3.89 -2.3 29.8 60.26 11.28 32.9 12.68 9.75 -4.43 2.09 -8.84 -3.11 -5.9 -10.15 -30.61 -40.72 -46.4 -13.48 -1.11 -18.2 -30.25 70.65
18.51 89.47 29.55 -147.26 3.9 0.74 5.42 -31.29 -7.05 0.0 14.64 -0.0 22.89 10.64 15.73 0.12 -3.05 -3.73 0.0 41.03 -0.0 -0.57 -12.82 2.73 -10.44 7.03 -0.73 -2.62 1.73 -0.06 -4.34 2.82 -0.14 1.16 0.04 -0.06 1.17 0.04 -0.06 21.57 1.21 -0.85 -4.8 -6.43 -4.61 -3.55 28.5 57.08 10.95 31.88 12.57 9.46 -4.92 2.32 -7.8 -3.91 -6.45 -7.43 -28.46 -43.15 -47.75 -12.36 -0.81 -20.09 -33.75 72.2
18.41 89.45 29.73 -147.3 3.83 0.66 5.34 -31.02 -7.03 0.0 14.11 0.0 23.35 11.12 15.98 0.47 -3.06 -3.7 -0.0 41.17 0.0 -0.56 -12.93 2.76 -10.05 7.46 -1.04 -2.53 1.83 -0.13 -4.19 2.98 -0.26 1.15 0.05 -0.04 1.16 0.05 -0.04 21.36 1.31 -0.57 -2.89 -5.81 -6.1 -5.2 26.61 53.4 11.01 31.35 12.52 9.18 -5.52 2.61 -6.37 -4.33 -7.64 -6.68 -25.01 -46.1 -44.9 -11.32 -1.26 -26.23 -37.5 72.37
18.38 89.44 29.86 -147.36 3.66 0.49 5.35 -30.61 -6.9 -0.0 13.57 -0.0 23.74 11.41 16.12 0.69 -3.0 -3.56 -0.0 41.34 -0.0 -0.55 -13.0 2.79 -9.32 8.25 -1.87 -2.35 2.02 -0.34 -3.93 3.26 -0.61 1.11 0.03 0.03 1.12 0.03 0.03 20.58 0.28 0.65 -2.25 -5.94 -6.23 -6.34 24.87 50.42 10.69 30.12 13.05 8.65 -6.29 2.1 -6.65 -5.04 -6.96 -6.11 -22.78 -48.4 -43.4 -10.15 -1.94 -30.45 -40.63 73.13
18.34 89.49 29.87 -147.55 3.39 0.39 4.97 -30.43 -6.71 -0.0 13.81 -0.0 24.31 10.35 16.68 0.8 -2.65 -3.5 0.0 41.22 -0.0 -0.49 -12.9 2.84 -9.31 8.38 -2.11 -2.35 2.05 -0.39 -3.93 3.3 -0.7 1.12 0.03 0.04 1.13 0.03 0.04 20.78 0.35 0.81 -1.51 -5.55 -6.82 -7.31 23.56 48.14 9.88 28.43 11.98 8.75 -6.14 3.15 -6.86 -4.89 -6.81 -5.91 -22.08 -49.07 -42.54 -9.74 -2.25 -32.32 -41.63 73.53
18.35 89.58 29.79 -147.42 3.13 0.33 4.65 -30.19 -6.63 0.0 14.21 -0.0 24.35 8.86 17.0 0.85 -2.15 -3.31 -0.0 40.82 0.0 -0.59 -12.72 2.91 -9.27 8.22 -2.16 -2.34 2.01 -0.41 -3.91 3.23 -0.72 1.13 0.05 0.05 1.14 0.04 0.05 20.96 0.52 0.97 -1.07 -5.53 -6.87 -7.1 24.12 49.12 7.07 25.41 10.7 8.97 -6.39 3.92 -8.14 -4.11 -5.83 -7.08 -23.79 -48.47 -42.24 -9.99 -2.47 -31.71 -40.04 73.77
18.43 89.64 29.69 -146.63 3.22 0.2 4.6 -30.14 -6.68 -0.0 14.38 0.0 23.87 8.54 16.78 0.91 -2.15 -2.84 -0.0 40.6 -0.0 -0.97 -12.78 3.12 -9.45 7.68 -1.69 -2.38 1.88 -0.3 -3.97 3.03 -0.54 1.15 0.05 0.04 1.16 0.05 0.04 21.33 0.66 0.84 -2.23 -6.26 -5.82 -5.92 26.67 52.02 4.79 25.07 10.15 9.34 -6.59 2.37 -9.39 -3.36 -5.04 -10.23 -26.52 -46.13 -43.5 -10.92 -2.35 -28.23 -35.82 73.57
18.41 89.68 29.65 -145.99 3.24 0.39 4.54 -30.3 -7.04 0.0 15.04 0.0 23.52 8.05 16.51 0.39 -2.01 -2.95 -0.0 40.25 -0.0 -0.98 -12.77 3.28 -10.34 7.19 -1.3 -2.6 1.76 -0.2 -4.32 2.85 -0.37 1.18 0.05 0.02 1.19 0.05 0.02 21.94 0.87 0.48 -3.91 -6.54 -5.0 -5.43 28.6 55.89 7.81 28.98 11.11 9.77 -5.32 3.56 -10.24 -2.68 -4.58 -13.64 -28.83 -41.94 -47.65 -12.37 -1.32 -22.0 -29.85 72.57
18.5 89.67 29.67 -146.6 3.23 0.43 4.25 -30.21 -6.64 -0.0 14.52 -0.0 24.13 8.88 15.82 0.25 -2.04 -3.09 0.0 40.33 -0.0 -0.9 -12.68 3.25 -10.48 6.64 -0.96 -2.64 1.63 -0.12 -4.36 2.65 -0.24 1.18 0.08 0.0 1.19 0.08 0.0 22.0 1.55 0.31 -5.8 -6.96 -3.66 -4.56 29.21 57.11 13.18 32.33 13.55 9.73 -4.0 2.22 -10.99 -2.63 -4.06 -16.47 -31.1 -38.62 -52.15 -13.28 0.03 -15.51 -22.89 71.08
18.83 89.66 29.68 -146.33 3.34 0.42 3.96 -30.37 -6.43 -0.0 14.45 -0.0 24.34 9.09 15.61 0.21 -2.44 -2.8 0.0 40.65 0.0 -1.05 -12.81 3.09 -10.59 6.2 -0.8 -2.66 1.52 -0.09 -4.4 2.47 -0.19 1.19 0.1 -0.02 1.2 0.11 -0.02 22.03 2.12 -0.01 -5.64 -7.52 -2.95 -2.37 28.24 60.24 14.46 29.44 13.21 10.29 -3.36 0.77 -12.22 -2.62 -3.3 -18.56 -32.6 -36.79 -59.52 -13.22 2.43 -9.02 -14.79 68.99
